<svg xmlns="http://www.w3.org/2000/svg" xmlns:xlink="http://www.w3.org/1999/xlink" viewBox="0 0 487.03 323.77"><defs><style>.cls-1{isolation:isolate;}.cls-2{fill:url(#linear-gradient);}.cls-3{fill:url(#linear-gradient-2);}.cls-4{fill:url(#linear-gradient-3);}.cls-5{fill:url(#linear-gradient-4);}.cls-11,.cls-42,.cls-48,.cls-58,.cls-6,.cls-7,.cls-8{mix-blend-mode:multiply;}.cls-6{fill:url(#New_Gradient_Swatch_13);}.cls-7{fill:url(#New_Gradient_Swatch_13-2);}.cls-8{fill:url(#New_Gradient_Swatch_13-3);}.cls-10,.cls-9{mix-blend-mode:overlay;}.cls-9{fill:url(#New_Gradient_Swatch_13-4);}.cls-10{fill:url(#New_Gradient_Swatch_6);}.cls-11{fill:url(#New_Gradient_Swatch_5);}.cls-12{fill:url(#linear-gradient-5);}.cls-13{fill:url(#New_Gradient_Swatch_4);}.cls-14,.cls-64,.cls-77{mix-blend-mode:screen;}.cls-15,.cls-64{fill:#171c40;}.cls-16{fill:url(#linear-gradient-6);}.cls-17{fill:#f8fafb;}.cls-18{fill:url(#New_Gradient_Swatch_9);}.cls-19{fill:url(#New_Gradient_Swatch_6-2);}.cls-20{fill:url(#New_Gradient_Swatch_4-2);}.cls-21{fill:url(#New_Gradient_Swatch_4-3);}.cls-22{fill:#babcbe;}.cls-23{fill:url(#linear-gradient-7);}.cls-24{fill:url(#linear-gradient-8);}.cls-25{fill:#8fffff;}.cls-26{fill:url(#New_Gradient_Swatch_6-3);}.cls-27{fill:url(#New_Gradient_Swatch_9-2);}.cls-28{fill:url(#New_Gradient_Swatch_6-4);}.cls-29{fill:url(#New_Gradient_Swatch_9-3);}.cls-30{fill:url(#New_Gradient_Swatch_6-5);}.cls-31{fill:#f9f8f7;}.cls-32{fill:url(#New_Gradient_Swatch_6-6);}.cls-33{fill:url(#New_Gradient_Swatch_9-4);}.cls-34{fill:#fff;}.cls-35{fill:url(#linear-gradient-9);}.cls-36{fill:url(#linear-gradient-10);}.cls-37{fill:url(#linear-gradient-11);}.cls-38{fill:url(#linear-gradient-12);}.cls-39{fill:url(#linear-gradient-13);}.cls-40{fill:#2a2277;}.cls-41{fill:url(#linear-gradient-14);}.cls-42{fill:#cfd1d2;}.cls-43{fill:url(#New_Gradient_Swatch_3);}.cls-44{fill:url(#New_Gradient_Swatch_3-2);}.cls-45{fill:url(#New_Gradient_Swatch_3-3);}.cls-46{fill:url(#New_Gradient_Swatch_3-4);}.cls-47{fill:url(#New_Gradient_Swatch_5-2);}.cls-48,.cls-59{fill:#f0f1f1;}.cls-49{fill:url(#linear-gradient-15);}.cls-50{fill:url(#linear-gradient-16);}.cls-51{fill:url(#New_Gradient_Swatch_3-5);}.cls-52{fill:url(#New_Gradient_Swatch_3-6);}.cls-53{fill:url(#New_Gradient_Swatch_3-7);}.cls-54{fill:url(#New_Gradient_Swatch_3-8);}.cls-55{fill:url(#linear-gradient-17);}.cls-56{fill:url(#linear-gradient-18);}.cls-57{fill:url(#linear-gradient-19);}.cls-60{fill:url(#New_Gradient_Swatch_5-3);}.cls-61{fill:url(#linear-gradient-20);}.cls-62{fill:url(#linear-gradient-21);}.cls-63{fill:url(#linear-gradient-22);}.cls-65{fill:url(#linear-gradient-23);}.cls-66{fill:url(#linear-gradient-24);}.cls-67{fill:url(#linear-gradient-25);}.cls-68{fill:url(#linear-gradient-26);}.cls-69{fill:#da00f9;}.cls-70{fill:url(#linear-gradient-27);}.cls-71{fill:url(#linear-gradient-28);}.cls-72{fill:url(#linear-gradient-29);}.cls-73{fill:url(#linear-gradient-30);}.cls-74{fill:#29346d;}.cls-75,.cls-77{fill:#424e57;}.cls-76{fill:#131214;}.cls-78{fill:#d8ecf7;}</style><linearGradient id="linear-gradient" x1="114.58" y1="232.09" x2="352.07" y2="232.09" gradientUnits="userSpaceOnUse"><stop offset="0" stop-color="#e4eff7"/><stop offset="0.64" stop-color="#c6dff2"/><stop offset="1" stop-color="#9bb7fc"/></linearGradient><linearGradient id="linear-gradient-2" x1="136" y1="118.7" x2="136" y2="302.07" xlink:href="#linear-gradient"/><linearGradient id="linear-gradient-3" x1="391.14" y1="162.1" x2="391.14" y2="302.07" xlink:href="#linear-gradient"/><linearGradient id="linear-gradient-4" x1="291.98" y1="9.9" x2="291.98" y2="193.27" xlink:href="#linear-gradient"/><linearGradient id="New_Gradient_Swatch_13" x1="119.55" y1="12.6" x2="296.88" y2="319.75" gradientUnits="userSpaceOnUse"><stop offset="0" stop-color="#74dbff"/><stop offset="0.13" stop-color="#78cefd"/><stop offset="0.37" stop-color="#84adf8"/><stop offset="0.68" stop-color="#9678f0"/><stop offset="0.69" stop-color="#9776f0"/><stop offset="0.76" stop-color="#8a6af3"/><stop offset="0.9" stop-color="#694af9"/><stop offset="1" stop-color="#4d2fff"/></linearGradient><linearGradient id="New_Gradient_Swatch_13-2" x1="289.73" y1="86.44" x2="424.83" y2="320.44" xlink:href="#New_Gradient_Swatch_13"/><linearGradient id="New_Gradient_Swatch_13-3" x1="198.72" y1="-25.32" x2="333.82" y2="208.69" xlink:href="#New_Gradient_Swatch_13"/><linearGradient id="New_Gradient_Swatch_13-4" x1="158.92" y1="-8.76" x2="294.02" y2="225.25" xlink:href="#New_Gradient_Swatch_13"/><linearGradient id="New_Gradient_Swatch_6" x1="112.7" y1="50.63" x2="247.81" y2="284.64" gradientUnits="userSpaceOnUse"><stop offset="0" stop-color="#df697b"/><stop offset="1" stop-color="#be2773"/></linearGradient><linearGradient id="New_Gradient_Swatch_5" y1="290.05" x2="487.03" y2="290.05" gradientUnits="userSpaceOnUse"><stop offset="0" stop-color="#c6dff2"/><stop offset="1" stop-color="#9bb7fc"/></linearGradient><linearGradient id="linear-gradient-5" x1="509.33" y1="168.16" x2="618.65" y2="357.5" gradientUnits="userSpaceOnUse"><stop offset="0" stop-color="#2a2277"/><stop offset="0.3" stop-color="#2e2379"/><stop offset="0.57" stop-color="#38247d"/><stop offset="0.83" stop-color="#4b2786"/><stop offset="1" stop-color="#5b2a8d"/></linearGradient><linearGradient id="New_Gradient_Swatch_4" x1="515.6" y1="179.01" x2="612.38" y2="346.64" gradientUnits="userSpaceOnUse"><stop offset="0" stop-color="#68acff"/><stop offset="0.23" stop-color="#65a7ff"/><stop offset="0.5" stop-color="#5b99ff"/><stop offset="0.79" stop-color="#4a81ff"/><stop offset="1" stop-color="#3b6bff"/></linearGradient><linearGradient id="linear-gradient-6" x1="239.36" y1="138.67" x2="420.6" y2="138.67" gradientUnits="userSpaceOnUse"><stop offset="0" stop-color="#3b6bff"/><stop offset="0.21" stop-color="#4a81ff"/><stop offset="0.5" stop-color="#5b99ff"/><stop offset="0.77" stop-color="#65a7ff"/><stop offset="1" stop-color="#68acff"/></linearGradient><linearGradient id="New_Gradient_Swatch_9" x1="486.39" y1="224.19" x2="490.44" y2="224.19" gradientUnits="userSpaceOnUse"><stop offset="0" stop-color="#efcf64"/><stop offset="1" stop-color="#e49174"/></linearGradient><linearGradient id="New_Gradient_Swatch_6-2" x1="495.17" y1="224.19" x2="499.21" y2="224.19" xlink:href="#New_Gradient_Swatch_6"/><linearGradient id="New_Gradient_Swatch_4-2" x1="503.94" y1="224.19" x2="507.99" y2="224.19" xlink:href="#New_Gradient_Swatch_4"/><linearGradient id="New_Gradient_Swatch_4-3" x1="308.67" y1="159.71" x2="350.76" y2="232.62" xlink:href="#New_Gradient_Swatch_4"/><linearGradient id="linear-gradient-7" x1="528.48" y1="277.2" x2="599.5" y2="400.22" gradientUnits="userSpaceOnUse"><stop offset="0" stop-color="#e5f0f8"/><stop offset="0.41" stop-color="#c5def2"/><stop offset="1" stop-color="#9bb7fc"/></linearGradient><linearGradient id="linear-gradient-8" x1="547.81" y1="335.45" x2="580.17" y2="335.45" xlink:href="#linear-gradient-7"/><linearGradient id="New_Gradient_Swatch_6-3" x1="582.97" y1="115.51" x2="596.72" y2="139.32" xlink:href="#New_Gradient_Swatch_6"/><linearGradient id="New_Gradient_Swatch_9-2" x1="697.33" y1="157.17" x2="709.32" y2="157.17" xlink:href="#New_Gradient_Swatch_9"/><linearGradient id="New_Gradient_Swatch_6-4" x1="441.74" y1="182.18" x2="453.73" y2="182.18" xlink:href="#New_Gradient_Swatch_6"/><linearGradient id="New_Gradient_Swatch_9-3" x1="479.03" y1="137.97" x2="487.5" y2="152.64" xlink:href="#New_Gradient_Swatch_9"/><linearGradient id="New_Gradient_Swatch_6-5" x1="639.63" y1="137.73" x2="653.16" y2="161.15" xlink:href="#New_Gradient_Swatch_6"/><linearGradient id="New_Gradient_Swatch_6-6" x1="548.14" y1="157.3" x2="557.81" y2="157.3" xlink:href="#New_Gradient_Swatch_6"/><linearGradient id="New_Gradient_Swatch_9-4" x1="541.2" y1="151.53" x2="550.91" y2="168.34" xlink:href="#New_Gradient_Swatch_9"/><linearGradient id="linear-gradient-9" x1="103.64" y1="269.28" x2="189.81" y2="269.28" xlink:href="#linear-gradient-5"/><linearGradient id="linear-gradient-10" x1="103.64" y1="254.74" x2="189.81" y2="254.74" gradientUnits="userSpaceOnUse"><stop offset="0" stop-color="#5b2a8d"/><stop offset="0.17" stop-color="#4b2786"/><stop offset="0.43" stop-color="#38247d"/><stop offset="0.7" stop-color="#2e2379"/><stop offset="1" stop-color="#2a2277"/></linearGradient><linearGradient id="linear-gradient-11" x1="103.64" y1="262.76" x2="189.81" y2="262.76" xlink:href="#linear-gradient-10"/><linearGradient id="linear-gradient-12" x1="103.64" y1="270.79" x2="189.81" y2="270.79" xlink:href="#linear-gradient-10"/><linearGradient id="linear-gradient-13" x1="103.64" y1="278.81" x2="189.81" y2="278.81" xlink:href="#linear-gradient-10"/><linearGradient id="linear-gradient-14" x1="240.12" y1="227.4" x2="263.44" y2="227.4" xlink:href="#linear-gradient-5"/><linearGradient id="New_Gradient_Swatch_3" x1="251.78" y1="217.57" x2="251.78" y2="223.26" xlink:href="#linear-gradient-10"/><linearGradient id="New_Gradient_Swatch_3-2" x1="251.78" y1="230.43" x2="251.78" y2="236.12" xlink:href="#linear-gradient-10"/><linearGradient id="New_Gradient_Swatch_3-3" x1="251.78" y1="243.29" x2="251.78" y2="248.98" xlink:href="#linear-gradient-10"/><linearGradient id="New_Gradient_Swatch_3-4" x1="251.78" y1="256.15" x2="251.78" y2="261.84" xlink:href="#linear-gradient-10"/><linearGradient id="New_Gradient_Swatch_5-2" x1="411.16" y1="227.24" x2="499.13" y2="227.24" xlink:href="#New_Gradient_Swatch_5"/><linearGradient id="linear-gradient-15" x1="210.39" y1="113.69" x2="210.39" y2="167.31" gradientUnits="userSpaceOnUse"><stop offset="0" stop-color="#c5def2"/><stop offset="1" stop-color="#9bb7fc"/></linearGradient><linearGradient id="linear-gradient-16" x1="353.95" y1="294.45" x2="377.27" y2="294.45" gradientTransform="matrix(-1, 0, 0, 1, 407.28, -67.05)" xlink:href="#linear-gradient-5"/><linearGradient id="New_Gradient_Swatch_3-5" x1="365.61" y1="284.62" x2="365.61" y2="290.31" gradientTransform="matrix(1, 0, 0, -1, -89.92, 574.93)" xlink:href="#linear-gradient-10"/><linearGradient id="New_Gradient_Swatch_3-6" x1="365.61" y1="297.48" x2="365.61" y2="303.17" gradientTransform="matrix(1, 0, 0, -1, -89.92, 600.65)" xlink:href="#linear-gradient-10"/><linearGradient id="New_Gradient_Swatch_3-7" x1="365.61" y1="310.34" x2="365.61" y2="316.03" gradientTransform="matrix(1, 0, 0, -1, -89.92, 626.37)" xlink:href="#linear-gradient-10"/><linearGradient id="New_Gradient_Swatch_3-8" x1="365.61" y1="323.2" x2="365.61" y2="328.89" gradientTransform="matrix(1, 0, 0, -1, -89.92, 652.08)" xlink:href="#linear-gradient-10"/><linearGradient id="linear-gradient-17" x1="352.15" y1="199.76" x2="320" y2="255.45" gradientTransform="matrix(-1, 0, 0, 1, 641.29, 0)" xlink:href="#linear-gradient-15"/><linearGradient id="linear-gradient-18" x1="337.61" y1="184.36" x2="310.84" y2="230.74" gradientTransform="matrix(-1, 0, 0, 1, 407.28, -67.05)" xlink:href="#linear-gradient-15"/><linearGradient id="linear-gradient-19" x1="303.58" y1="242.33" x2="457.89" y2="242.33" xlink:href="#linear-gradient-7"/><linearGradient id="New_Gradient_Swatch_5-3" x1="91.36" y1="292.54" x2="202.08" y2="292.54" xlink:href="#New_Gradient_Swatch_5"/><linearGradient id="linear-gradient-20" x1="146.72" y1="44.92" x2="146.72" y2="115.12" xlink:href="#linear-gradient-7"/><linearGradient id="linear-gradient-21" x1="120.95" y1="29.68" x2="172.5" y2="118.97" xlink:href="#linear-gradient-7"/><linearGradient id="linear-gradient-22" x1="380.73" y1="173.07" x2="380.73" y2="130.81" xlink:href="#linear-gradient-7"/><linearGradient id="linear-gradient-23" x1="412.83" y1="244.31" x2="412.83" y2="224.94" xlink:href="#linear-gradient-7"/><linearGradient id="linear-gradient-24" x1="141.26" y1="63.18" x2="152.18" y2="44.26" xlink:href="#linear-gradient-7"/><linearGradient id="linear-gradient-25" x1="380.73" y1="124.48" x2="380.73" y2="117.07" xlink:href="#linear-gradient-7"/><linearGradient id="linear-gradient-26" x1="390.7" y1="120.77" x2="394.8" y2="120.77" xlink:href="#linear-gradient-7"/><linearGradient id="linear-gradient-27" x1="366.09" y1="120.77" x2="386.24" y2="120.77" xlink:href="#linear-gradient-7"/><linearGradient id="linear-gradient-28" x1="380.73" y1="177.5" x2="380.73" y2="175.01" xlink:href="#linear-gradient-7"/><linearGradient id="linear-gradient-29" x1="380.73" y1="181.02" x2="380.73" y2="178.54" xlink:href="#linear-gradient-7"/><linearGradient id="linear-gradient-30" x1="380.73" y1="184.55" x2="380.73" y2="182.06" xlink:href="#linear-gradient-7"/></defs><g class="cls-1"><g id="OBJECTS"><rect class="cls-2" x="114.58" y="140.4" width="237.49" height="183.37" rx="10"/><rect class="cls-3" x="17.25" y="118.7" width="237.49" height="183.37" rx="10"/><rect class="cls-4" x="300.5" y="162.1" width="181.28" height="139.97" rx="10"/><rect class="cls-5" x="173.23" y="9.9" width="237.49" height="183.37" rx="10"/><rect class="cls-6" x="53.33" y="46.59" width="309.76" height="239.17" rx="10"/><rect class="cls-7" x="238.54" y="111.76" width="237.49" height="183.37" rx="10"/><rect class="cls-8" x="147.52" width="237.49" height="183.37" rx="10"/><rect class="cls-9" x="107.73" y="16.56" width="237.49" height="183.37" rx="10"/><rect class="cls-10" x="61.51" y="75.95" width="237.49" height="183.37" rx="10"/><rect class="cls-11" y="278.03" width="487.03" height="24.05" rx="9.93"/><path class="cls-12" d="M664.51,329.19a3.14,3.14,0,0,1-3.12,3.15H466.59a3.14,3.14,0,0,1-3.12-3.15V196.46a3.13,3.13,0,0,1,3.12-3.14h194.8a3.13,3.13,0,0,1,3.12,3.14Z" transform="translate(-234.01 -67.05)"/><path class="cls-13" d="M654.61,322.25H473.37V203.39H654.61Z" transform="translate(-234.01 -67.05)"/><g class="cls-14"><polygon class="cls-15" points="389.83 136.34 345.09 136.34 413.11 255.21 420.59 255.21 420.6 255.2 420.6 190.11 389.83 136.34"/><polygon class="cls-15" points="316.98 136.34 289.18 136.34 357.2 255.21 385 255.21 316.98 136.34"/><polygon class="cls-15" points="312.33 255.21 325.3 255.21 257.28 136.34 244.31 136.34 312.33 255.21"/></g><polygon class="cls-16" points="420.6 141 420.59 141 239.36 141 239.35 141 239.35 136.34 420.6 136.34 420.6 141"/><rect class="cls-17" x="247.94" y="152.2" width="121.59" height="80.62" rx="1.64"/><path class="cls-18" d="M490.44,224.19a2,2,0,1,1-2-2A2,2,0,0,1,490.44,224.19Z" transform="translate(-234.01 -67.05)"/><path class="cls-19" d="M499.21,224.19a2,2,0,1,1-2-2A2,2,0,0,1,499.21,224.19Z" transform="translate(-234.01 -67.05)"/><path class="cls-20" d="M508,224.19a2,2,0,1,1-2-2A2,2,0,0,1,508,224.19Z" transform="translate(-234.01 -67.05)"/><rect class="cls-21" x="296.99" y="166.46" width="65.46" height="59.41"/><rect class="cls-22" x="257.37" y="166.46" width="23.12" height="1.52"/><rect class="cls-22" x="257.37" y="174.02" width="34.62" height="1.52"/><rect class="cls-22" x="257.37" y="178.96" width="34.62" height="1.52"/><rect class="cls-22" x="257.37" y="183.89" width="34.62" height="1.52"/><rect class="cls-22" x="257.37" y="188.82" width="34.62" height="1.52"/><rect class="cls-22" x="257.37" y="193.76" width="34.62" height="1.52"/><rect class="cls-22" x="257.37" y="198.69" width="34.62" height="1.52"/><rect class="cls-22" x="257.37" y="203.63" width="34.62" height="1.52"/><rect class="cls-22" x="257.37" y="208.56" width="22.76" height="1.52"/><path class="cls-23" d="M697.33,341.94a3.17,3.17,0,0,1-3.18,3.14H433.83a3.17,3.17,0,0,1-3.18-3.14v-6.46a3.16,3.16,0,0,1,3.18-3.14H694.15a3.16,3.16,0,0,1,3.18,3.14Z" transform="translate(-234.01 -67.05)"/><path class="cls-24" d="M580.17,332.34v3.07a3.14,3.14,0,0,1-3.13,3.14h-26.1a3.14,3.14,0,0,1-3.13-3.14v-3.07" transform="translate(-234.01 -67.05)"/><path class="cls-25" d="M564,286.84a24,24,0,1,1,23.88-24A24,24,0,0,1,564,286.84ZM564,240a22.88,22.88,0,1,0,22.76,22.88A22.84,22.84,0,0,0,564,240Z" transform="translate(-234.01 -67.05)"/><rect class="cls-25" x="329.42" y="156.3" width="1.12" height="25.85"/><polygon class="cls-25" points="346.38 156.86 313.57 156.86 313.57 105.38 314.69 105.38 314.69 155.73 345.26 155.73 345.26 118.22 355.27 118.22 355.27 81.86 356.4 81.86 356.4 119.34 346.38 119.34 346.38 156.86"/><polygon class="cls-25" points="401.87 196.34 343.54 196.34 343.54 195.21 400.75 195.21 400.75 179.11 410.13 179.11 410.13 108.66 411.25 108.66 411.25 180.24 401.87 180.24 401.87 196.34"/><polygon class="cls-25" points="316.42 196.34 249.24 196.34 249.24 91.68 250.36 91.68 250.36 195.21 316.42 195.21 316.42 196.34"/><polygon class="cls-25" points="330.54 242.91 249.24 242.91 249.24 228.62 213.16 228.62 213.16 121.16 214.28 121.16 214.28 227.49 250.36 227.49 250.36 241.78 329.42 241.78 329.42 209.41 330.54 209.41 330.54 242.91"/><polygon class="cls-25" points="450.3 228.62 329.98 228.62 329.98 227.49 449.17 227.49 449.17 143.82 468.75 143.82 468.75 96.15 469.87 96.15 469.87 144.95 450.3 144.95 450.3 228.62"/><path class="cls-25" d="M589.85,149.47a22.06,22.06,0,1,1,21.94-22.06A22,22,0,0,1,589.85,149.47Zm0-43a20.93,20.93,0,1,0,20.82,20.92A20.89,20.89,0,0,0,589.85,106.49Z" transform="translate(-234.01 -67.05)"/><path class="cls-25" d="M483.81,159.3a17.13,17.13,0,1,1,17-17.12A17.09,17.09,0,0,1,483.81,159.3Zm0-33.12a16,16,0,1,0,15.91,16A16,16,0,0,0,483.81,126.18Z" transform="translate(-234.01 -67.05)"/><path class="cls-25" d="M644.7,176.27A14.27,14.27,0,1,1,658.9,162,14.24,14.24,0,0,1,644.7,176.27Zm0-27.41A13.14,13.14,0,1,0,657.77,162,13.12,13.12,0,0,0,644.7,148.86Z" transform="translate(-234.01 -67.05)"/><path class="cls-25" d="M548.14,173a14.27,14.27,0,1,1,14.2-14.27A14.25,14.25,0,0,1,548.14,173Zm0-27.41a13.14,13.14,0,1,0,13.08,13.14A13.12,13.12,0,0,0,548.14,145.59Z" transform="translate(-234.01 -67.05)"/><path class="cls-26" d="M601.82,126.69a12.09,12.09,0,0,0-1.49-5.15l1.48-.83a13.6,13.6,0,0,0-2.87-3.59l-1.13,1.28a11.86,11.86,0,0,0-4.68-2.59l.47-1.64h0a13.46,13.46,0,0,0-3.74-.53c-.27,0-.54,0-.8,0l.1,1.7a11.94,11.94,0,0,0-5.12,1.51l-.83-1.5a13.79,13.79,0,0,0-3.58,2.88l1.27,1.14a12.09,12.09,0,0,0-2.57,4.7l-1.63-.47v0a13.9,13.9,0,0,0-.52,3.75c0,.27,0,.53,0,.8l1.7-.1a12.09,12.09,0,0,0,1.49,5.15l-1.49.83a14,14,0,0,0,2.87,3.6l1.13-1.28a11.89,11.89,0,0,0,4.67,2.59l-.46,1.64h0a13.39,13.39,0,0,0,3.73.53c.28,0,.56,0,.83,0l-.1-1.71a11.89,11.89,0,0,0,5.12-1.51l.83,1.5a14,14,0,0,0,3.57-2.89l-1.27-1.14a12,12,0,0,0,2.56-4.7l1.63.46h0a13.9,13.9,0,0,0,.52-3.75c0-.28,0-.55,0-.82Zm-15,11.29h0l.09-.29Zm10-8.58a7.27,7.27,0,0,1-7,5.31,7.55,7.55,0,0,1-2-.27,7.29,7.29,0,0,1-5.28-7,7.57,7.57,0,0,1,.27-2,7.27,7.27,0,0,1,7-5.31,7.5,7.5,0,0,1,2,.27,7.3,7.3,0,0,1,5.29,7A7.19,7.19,0,0,1,596.83,129.4Z" transform="translate(-234.01 -67.05)"/><path class="cls-27" d="M709.32,157.17a6,6,0,1,1-6-6A6,6,0,0,1,709.32,157.17Z" transform="translate(-234.01 -67.05)"/><path class="cls-28" d="M453.73,182.18a6,6,0,1,1-6-6A6,6,0,0,1,453.73,182.18Z" transform="translate(-234.01 -67.05)"/><path class="cls-29" d="M495.29,144.55a4.41,4.41,0,0,0-1.22-.86l-.18-.07h0a2.48,2.48,0,0,0-1.6-1.7,6.71,6.71,0,0,0-13-2.25,4.19,4.19,0,0,0-1.55-.3,4.12,4.12,0,0,0-4.11,4.13,4.9,4.9,0,0,0,0,.54,4,4,0,0,0-.58.2,1.78,1.78,0,0,0-.51.38,2.67,2.67,0,0,0,1.95,4.49h18.33a3,3,0,0,0,2.72-4.13A1.6,1.6,0,0,0,495.29,144.55Z" transform="translate(-234.01 -67.05)"/><path class="cls-30" d="M654.11,145.71c0,5.22-9.41,20.32-9.41,20.32s-9.41-15.1-9.41-20.32a9.41,9.41,0,1,1,18.82,0Z" transform="translate(-234.01 -67.05)"/><path class="cls-31" d="M649.77,145.71a5.07,5.07,0,1,1-5.07-5.09A5.08,5.08,0,0,1,649.77,145.71Z" transform="translate(-234.01 -67.05)"/><path class="cls-32" d="M548.14,149v3.28a6.44,6.44,0,0,1,6.41,6.44,6.47,6.47,0,0,1-1.88,4.56L555,165.6A9.73,9.73,0,0,0,548.14,149Z" transform="translate(-234.01 -67.05)"/><path class="cls-33" d="M552.67,163.29,555,165.6A9.69,9.69,0,1,1,548.14,149v3.28a6.44,6.44,0,0,0-6.4,6.44,6.43,6.43,0,0,0,1.88,4.56,6.41,6.41,0,0,0,9,0Z" transform="translate(-234.01 -67.05)"/><path class="cls-34" d="M561.61,267.88h-5.8l-1.41,2.76h-4L558.8,255h4.39l2.87,15.63h-4Zm-1.35-8.68-3,5.79h3.87Z" transform="translate(-234.01 -67.05)"/><path class="cls-34" d="M570.52,255h3.79l-2.75,15.63h-3.79Z" transform="translate(-234.01 -67.05)"/><rect class="cls-35" x="103.64" y="248.98" width="86.17" height="40.6"/><rect class="cls-36" x="103.64" y="252.81" width="86.17" height="3.85"/><rect class="cls-37" x="103.64" y="260.84" width="86.17" height="3.85"/><rect class="cls-38" x="103.64" y="268.86" width="86.17" height="3.85"/><rect class="cls-39" x="103.64" y="276.89" width="86.17" height="3.85"/><path class="cls-40" d="M494,377.21a1.67,1.67,0,0,1-.84-.22,1.7,1.7,0,0,1-.62-2.32l7.69-13.39L493,348.74H478.59l-7.21,12.54,7.69,13.39a1.71,1.71,0,0,1-.61,2.32,1.69,1.69,0,0,1-2.31-.62l-8.66-15.09,9.15-15.93h18.3l9.15,15.93-8.66,15.09A1.68,1.68,0,0,1,494,377.21Z" transform="translate(-234.01 -67.05)"/><path class="cls-40" d="M243.6,280H260a0,0,0,0,1,0,0v1.19a4.58,4.58,0,0,1-4.58,4.58h-7.2a4.58,4.58,0,0,1-4.58-4.58V280A0,0,0,0,1,243.6,280Z"/><rect class="cls-41" x="240.12" y="174.82" width="23.32" height="105.17"/><rect class="cls-42" x="240.12" y="174.82" width="6.61" height="105.17"/><rect class="cls-43" x="235.32" y="217.57" width="32.91" height="5.69" rx="1.78"/><rect class="cls-44" x="235.32" y="230.43" width="32.91" height="5.69" rx="1.78"/><rect class="cls-45" x="235.32" y="243.29" width="32.91" height="5.69" rx="1.78"/><rect class="cls-46" x="235.32" y="256.15" width="32.91" height="5.69" rx="1.78"/><path class="cls-47" d="M497.17,246.62l-22.75,22.87a6.66,6.66,0,0,1-9.45,0l-14.69-14.77-39.12-39.34L443.34,183l19.78,19.87,34.05,34.23A6.74,6.74,0,0,1,497.17,246.62Z" transform="translate(-234.01 -67.05)"/><path class="cls-48" d="M472.88,212.7l-9.76-9.81-17-17.12a26.64,26.64,0,0,0-6.23.77l-19.53,19.63a27,27,0,0,0-.77,6.4,26.67,26.67,0,1,0,53.33.13Z" transform="translate(-234.01 -67.05)"/><polygon class="cls-48" points="227.32 198.79 259.52 166.42 258.67 165.56 226.47 197.93 227.32 198.79"/><polygon class="cls-48" points="229.1 135.84 223.74 195.19 177.15 148.33 209.33 115.97 229.1 135.84"/><ellipse class="cls-49" cx="210.39" cy="140.5" rx="26.67" ry="26.81"/><path class="cls-40" d="M283.86,377.21A1.73,1.73,0,0,1,283,377a1.71,1.71,0,0,1-.62-2.32l7.7-13.39-7.21-12.54H268.48l-7.2,12.54L269,374.67a1.71,1.71,0,0,1-.62,2.32,1.67,1.67,0,0,1-2.3-.62l-8.67-15.09,9.15-15.93h18.31L294,361.28l-8.67,15.09A1.68,1.68,0,0,1,283.86,377.21Z" transform="translate(-234.01 -67.05)"/><path class="cls-40" d="M272.09,347h7.2a4.58,4.58,0,0,1,4.58,4.58v1.19a0,0,0,0,1,0,0H267.51a0,0,0,0,1,0,0v-1.19A4.58,4.58,0,0,1,272.09,347Z" transform="translate(317.36 632.8) rotate(-180)"/><rect class="cls-50" x="30.01" y="174.82" width="23.32" height="105.17"/><rect class="cls-42" x="46.72" y="174.82" width="6.61" height="105.17"/><rect class="cls-51" x="259.23" y="284.62" width="32.91" height="5.69" rx="1.78" transform="translate(317.36 507.88) rotate(180)"/><rect class="cls-52" x="259.23" y="297.48" width="32.91" height="5.69" rx="1.78" transform="translate(317.36 533.6) rotate(180)"/><rect class="cls-53" x="259.23" y="310.34" width="32.91" height="5.69" rx="1.78" transform="translate(317.36 559.32) rotate(180)"/><rect class="cls-54" x="259.23" y="323.2" width="32.91" height="5.69" rx="1.78" transform="translate(317.36 585.03) rotate(180)"/><path class="cls-55" d="M264.31,246.62l22.75,22.87a6.66,6.66,0,0,0,9.45,0l14.69-14.77,39.12-39.34L318.13,183l-19.77,19.87-34.05,34.23A6.74,6.74,0,0,0,264.31,246.62Z" transform="translate(-234.01 -67.05)"/><path class="cls-48" d="M288.6,212.7l9.76-9.81,17-17.12a26.64,26.64,0,0,1,6.23.77l19.53,19.63a27,27,0,0,1,.77,6.4,26.67,26.67,0,1,1-53.33.13Z" transform="translate(-234.01 -67.05)"/><polygon class="cls-48" points="66.13 198.79 33.93 166.42 34.78 165.56 66.98 197.93 66.13 198.79"/><polygon class="cls-48" points="64.35 135.84 69.71 195.19 116.3 148.33 84.12 115.97 64.35 135.84"/><ellipse class="cls-56" cx="83.06" cy="140.5" rx="26.67" ry="26.81"/><path class="cls-57" d="M455.3,202a100.78,100.78,0,0,0-27.88-21.75,100,100,0,0,0-93.37,0A100.63,100.63,0,0,0,306.17,202a10.32,10.32,0,0,0-2.27,9.4l.68,2.75.34,1.38,8.25,33.32,1.19,4.81,4.73,19.15,1,4.16,8.91,36a4.11,4.11,0,0,0,4,3.14h95.44a4.12,4.12,0,0,0,4-3.14l8.91-36,1-4.15,4.74-19.1,1.2-4.85,8.24-33.29.34-1.38.68-2.76A10.36,10.36,0,0,0,455.3,202Z" transform="translate(-234.01 -67.05)"/><g class="cls-58"><path class="cls-59" d="M456.9,214.11l-.34,1.38a115.19,115.19,0,0,0-22.87-18,102.33,102.33,0,0,0-105.92,0,114.66,114.66,0,0,0-19.36,14.55c-1.18,1.1-2.35,2.23-3.49,3.39l-.34-1.38a115.4,115.4,0,0,1,22.58-17.6,103.51,103.51,0,0,1,107.14,0A115.57,115.57,0,0,1,456.9,214.11Z" transform="translate(-234.01 -67.05)"/></g><path class="cls-48" d="M427.42,180.19a60.38,60.38,0,0,1-93.37,0,100,100,0,0,1,93.37,0Z" transform="translate(-234.01 -67.05)"/><rect class="cls-60" x="91.36" y="283.01" width="110.71" height="19.06" rx="5.97"/><path class="cls-48" d="M426.61,363.2H334.86a9.49,9.49,0,0,1-9-6.57,9.65,9.65,0,0,0-.47,3,9.5,9.5,0,0,0,9.48,9.53h91.75a9.5,9.5,0,0,0,9.48-9.53,9.65,9.65,0,0,0-.47-3A9.49,9.49,0,0,1,426.61,363.2Z" transform="translate(-234.01 -67.05)"/><ellipse class="cls-61" cx="146.72" cy="80.02" rx="57.73" ry="35.1"/><ellipse class="cls-62" cx="146.72" cy="74.33" rx="51.34" ry="51.61"/><path class="cls-15" d="M409,172.51H352.44a4.77,4.77,0,0,1-4.76-4.79V136.16a4.77,4.77,0,0,1,4.76-4.79H409a4.77,4.77,0,0,1,4.76,4.79v31.56A4.77,4.77,0,0,1,409,172.51Z" transform="translate(-234.01 -67.05)"/><path class="cls-15" d="M409,172.51H352.44a4.77,4.77,0,0,1-4.76-4.79V136.16a4.77,4.77,0,0,1,4.76-4.79H409a4.77,4.77,0,0,1,4.76,4.79v31.56A4.77,4.77,0,0,1,409,172.51Z" transform="translate(-234.01 -67.05)"/><path class="cls-63" d="M409,173.07H352.44a5.35,5.35,0,0,1-5.33-5.35V136.16a5.35,5.35,0,0,1,5.33-5.35H409a5.34,5.34,0,0,1,5.32,5.35v31.56A5.34,5.34,0,0,1,409,173.07Zm-56.59-41.14a4.22,4.22,0,0,0-4.2,4.23v31.56a4.21,4.21,0,0,0,4.2,4.22H409a4.22,4.22,0,0,0,4.2-4.22V136.16a4.23,4.23,0,0,0-4.2-4.23Z" transform="translate(-234.01 -67.05)"/><path class="cls-15" d="M409,172.51H352.44a4.77,4.77,0,0,1-4.76-4.79V136.16a4.77,4.77,0,0,1,4.76-4.79H409a4.77,4.77,0,0,1,4.76,4.79v31.56A4.77,4.77,0,0,1,409,172.51Z" transform="translate(-234.01 -67.05)"/><path class="cls-15" d="M412.11,136.16v31.56a3.1,3.1,0,0,1-3.08,3.1H352.44a3.1,3.1,0,0,1-3.08-3.1V136.16a3.08,3.08,0,0,1,3.08-3.09H409A3.08,3.08,0,0,1,412.11,136.16Z" transform="translate(-234.01 -67.05)"/><path class="cls-64" d="M367.84,133.07l21.61,37.75h7l-21.6-37.75Zm37.25,0H385.61l21.6,37.75H409a3.1,3.1,0,0,0,3.08-3.1V145.33Z" transform="translate(-234.01 -67.05)"/><g class="cls-58"><path class="cls-59" d="M421.48,305.32H340a7.3,7.3,0,0,1-7.24-6.8l-5.1-74.29a7.23,7.23,0,0,1,1.94-5.48,7.15,7.15,0,0,1,5.3-2.32h91.68a7.15,7.15,0,0,1,5.31,2.32,7.23,7.23,0,0,1,1.93,5.48l-5.1,74.29A7.3,7.3,0,0,1,421.48,305.32Zm-86.59-87.76a6.15,6.15,0,0,0-6.11,6.59l5.09,74.3a6.16,6.16,0,0,0,6.12,5.74h81.49a6.16,6.16,0,0,0,6.11-5.74l5.1-74.3a6.15,6.15,0,0,0-6.12-6.59Z" transform="translate(-234.01 -67.05)"/></g><rect class="cls-15" x="169.74" y="158.46" width="18.14" height="18.23" rx="2.62"/><path class="cls-65" d="M419,244.31H406.69a3.52,3.52,0,0,1-3.5-3.52V228.46a3.52,3.52,0,0,1,3.5-3.52H419a3.51,3.51,0,0,1,3.5,3.52v12.33A3.51,3.51,0,0,1,419,244.31Zm-12.27-18.24a2.38,2.38,0,0,0-2.37,2.39v12.33a2.38,2.38,0,0,0,2.37,2.39H419a2.38,2.38,0,0,0,2.37-2.39V228.46a2.38,2.38,0,0,0-2.37-2.39Z" transform="translate(-234.01 -67.05)"/><path class="cls-25" d="M369.68,153H355.85a7.24,7.24,0,0,0,1.18,2.21H368.5A7.46,7.46,0,0,0,369.68,153Z" transform="translate(-234.01 -67.05)"/><path class="cls-25" d="M370.05,150.7a6.74,6.74,0,0,0-.09-1.11H355.57a6.16,6.16,0,0,0,0,2.21H370A6.71,6.71,0,0,0,370.05,150.7Z" transform="translate(-234.01 -67.05)"/><path class="cls-25" d="M391.41,150.7a6.72,6.72,0,0,0,.1,1.1H405.9a6.83,6.83,0,0,0,0-2.21H391.51A6.74,6.74,0,0,0,391.41,150.7Z" transform="translate(-234.01 -67.05)"/><path class="cls-25" d="M391.79,153a7.24,7.24,0,0,0,1.18,2.21h11.47a7.46,7.46,0,0,0,1.18-2.21Z" transform="translate(-234.01 -67.05)"/><path class="cls-25" d="M369.68,148.39a7.46,7.46,0,0,0-1.18-2.21H357a7.24,7.24,0,0,0-1.18,2.21Z" transform="translate(-234.01 -67.05)"/><path class="cls-25" d="M358.2,156.4a7.24,7.24,0,0,0,9.13,0Z" transform="translate(-234.01 -67.05)"/><path class="cls-25" d="M394.14,156.4a7.24,7.24,0,0,0,9.13,0Z" transform="translate(-234.01 -67.05)"/><path class="cls-25" d="M403.27,145a7.24,7.24,0,0,0-9.13,0Z" transform="translate(-234.01 -67.05)"/><path class="cls-25" d="M367.33,145a7.24,7.24,0,0,0-9.13,0Z" transform="translate(-234.01 -67.05)"/><path class="cls-25" d="M393,146.18a7.24,7.24,0,0,0-1.18,2.21h13.83a7.46,7.46,0,0,0-1.18-2.21Z" transform="translate(-234.01 -67.05)"/><rect class="cls-66" x="128.41" y="50.58" width="36.62" height="6.28" rx="2.59"/><path class="cls-67" d="M396.13,124.48H365.34a3.49,3.49,0,0,1-3.48-3.5v-.42a3.49,3.49,0,0,1,3.48-3.49h30.79a3.48,3.48,0,0,1,3.47,3.49V121A3.48,3.48,0,0,1,396.13,124.48Zm-30.79-6.28a2.36,2.36,0,0,0-2.35,2.36V121a2.36,2.36,0,0,0,2.35,2.37h30.79a2.36,2.36,0,0,0,2.35-2.37v-.42a2.36,2.36,0,0,0-2.35-2.36Z" transform="translate(-234.01 -67.05)"/><path class="cls-15" d="M394.52,120.77a1.77,1.77,0,1,1-1.77-1.77A1.78,1.78,0,0,1,394.52,120.77Z" transform="translate(-234.01 -67.05)"/><path class="cls-68" d="M392.75,122.83a2.06,2.06,0,1,1,2.05-2.06A2.05,2.05,0,0,1,392.75,122.83Zm0-3.55a1.5,1.5,0,1,0,1.49,1.49A1.49,1.49,0,0,0,392.75,119.28Z" transform="translate(-234.01 -67.05)"/><path class="cls-69" d="M393.56,120.77a.81.81,0,1,1-.81-.81A.81.81,0,0,1,393.56,120.77Z" transform="translate(-234.01 -67.05)"/><rect class="cls-15" x="132.36" y="52.87" width="19.58" height="1.7" rx="0.7"/><path class="cls-70" d="M385.16,121.91h-18a1.09,1.09,0,0,1-1.08-1.08v-.11a1.08,1.08,0,0,1,1.08-1.08h18a1.08,1.08,0,0,1,1.08,1.08v.11A1.08,1.08,0,0,1,385.16,121.91Zm-18-1.71a.51.51,0,0,0-.51.52v.11a.51.51,0,0,0,.51.51h18a.51.51,0,0,0,.51-.51v-.11a.51.51,0,0,0-.51-.52Z" transform="translate(-234.01 -67.05)"/><rect class="cls-15" x="135.67" y="108.24" width="22.1" height="1.92" rx="0.7"/><path class="cls-71" d="M391,177.5H370.47a1.07,1.07,0,0,1-1.07-1.08v-.33a1.08,1.08,0,0,1,1.07-1.08H391a1.08,1.08,0,0,1,1.08,1.08v.33A1.08,1.08,0,0,1,391,177.5Zm-20.52-1.92a.51.51,0,0,0-.51.51v.33a.51.51,0,0,0,.51.52H391a.51.51,0,0,0,.51-.52v-.33a.51.51,0,0,0-.51-.51Z" transform="translate(-234.01 -67.05)"/><rect class="cls-15" x="135.67" y="111.77" width="22.1" height="1.92" rx="0.7"/><path class="cls-72" d="M391,181H370.47A1.07,1.07,0,0,1,369.4,180v-.34a1.07,1.07,0,0,1,1.07-1.07H391a1.07,1.07,0,0,1,1.08,1.07V180A1.07,1.07,0,0,1,391,181Zm-20.52-1.92a.51.51,0,0,0-.51.51V180a.51.51,0,0,0,.51.51H391a.51.51,0,0,0,.51-.51v-.34a.51.51,0,0,0-.51-.51Z" transform="translate(-234.01 -67.05)"/><rect class="cls-15" x="135.67" y="115.29" width="22.1" height="1.92" rx="0.7"/><path class="cls-73" d="M391,184.55H370.47a1.08,1.08,0,0,1-1.07-1.08v-.33a1.07,1.07,0,0,1,1.07-1.08H391a1.08,1.08,0,0,1,1.08,1.08v.33A1.08,1.08,0,0,1,391,184.55Zm-20.52-1.93a.51.51,0,0,0-.51.52v.33a.51.51,0,0,0,.51.51H391a.51.51,0,0,0,.51-.51v-.33a.51.51,0,0,0-.51-.52Z" transform="translate(-234.01 -67.05)"/><rect class="cls-69" x="172.96" y="160.98" width="3.39" height="3.41" rx="0.65"/><rect class="cls-25" x="172.96" y="165.87" width="3.39" height="3.41" rx="0.65"/><rect class="cls-74" x="172.96" y="170.76" width="3.39" height="3.41" rx="0.65"/><rect class="cls-69" x="178.56" y="160.98" width="3.39" height="3.41" rx="0.65"/><rect class="cls-74" x="182.97" y="160.98" width="2.03" height="13.18" rx="0.65"/><rect class="cls-74" x="178.56" y="165.87" width="3.39" height="3.41" rx="0.65"/><rect class="cls-74" x="178.56" y="170.76" width="3.39" height="3.41" rx="0.65"/><g class="cls-14"><path class="cls-75" d="M597.11,97.18a7.41,7.41,0,1,1,7.37-7.41A7.4,7.4,0,0,1,597.11,97.18Zm0-13.13a5.72,5.72,0,1,0,5.68,5.72A5.71,5.71,0,0,0,597.11,84.05Z" transform="translate(-234.01 -67.05)"/></g><g class="cls-14"><path class="cls-76" d="M500.64,144.37h-9.89v-9.94h9.89Zm-8.21-1.69H499v-6.56h-6.52Z" transform="translate(-234.01 -67.05)"/></g><g class="cls-14"><ellipse class="cls-75" cx="233.1" cy="29.87" rx="1.43" ry="1.44"/><path class="cls-75" d="M481.7,96.92a1.43,1.43,0,1,1-1.43-1.44A1.43,1.43,0,0,1,481.7,96.92Z" transform="translate(-234.01 -67.05)"/><ellipse class="cls-75" cx="259.42" cy="29.87" rx="1.43" ry="1.44"/><ellipse class="cls-75" cx="272.58" cy="29.87" rx="1.43" ry="1.44"/><ellipse class="cls-75" cx="285.74" cy="29.87" rx="1.43" ry="1.44"/><ellipse class="cls-75" cx="239.35" cy="35.67" rx="1.43" ry="1.44"/><ellipse class="cls-75" cx="252.51" cy="35.67" rx="1.43" ry="1.44"/><ellipse class="cls-75" cx="265.66" cy="35.67" rx="1.43" ry="1.44"/><path class="cls-75" d="M514.27,102.72a1.43,1.43,0,1,1-1.43-1.43A1.43,1.43,0,0,1,514.27,102.72Z" transform="translate(-234.01 -67.05)"/><ellipse class="cls-75" cx="291.98" cy="35.67" rx="1.43" ry="1.44"/></g><polygon class="cls-77" points="164.21 10.81 164.21 7.21 162.22 7.21 162.22 10.81 158.63 10.81 158.63 12.81 162.22 12.81 162.22 16.42 164.21 16.42 164.21 12.81 167.79 12.81 167.79 10.81 164.21 10.81"/><g class="cls-14"><path class="cls-75" d="M465.56,171.74a4.13,4.13,0,0,1-3.31-1.85,2.7,2.7,0,0,0-4.77,0,3.89,3.89,0,0,1-6.62,0,3,3,0,0,0-2.38-1.43c-1.15,0-1.69.63-2.39,1.43a3.89,3.89,0,0,1-6.62,0,2.71,2.71,0,0,0-4.78,0,4.11,4.11,0,0,1-3.31,1.85.62.62,0,0,1,0-1.23,3,3,0,0,0,2.39-1.43,3.89,3.89,0,0,1,6.62,0,2.71,2.71,0,0,0,4.78,0,3.89,3.89,0,0,1,6.62,0,3,3,0,0,0,2.38,1.43c1.15,0,1.69-.63,2.39-1.43a3.88,3.88,0,0,1,6.61,0,3,3,0,0,0,2.39,1.43.62.62,0,0,1,0,1.23Z" transform="translate(-234.01 -67.05)"/></g><g class="cls-14"><path class="cls-75" d="M313.47,146.35h-9.89v-9.94h9.89Zm-8.2-1.7h6.52V138.1h-6.52Z" transform="translate(-234.01 -67.05)"/></g><g class="cls-14"><rect class="cls-75" x="453.44" y="199.92" width="16.71" height="2.32"/><rect class="cls-75" x="453.44" y="206.57" width="16.71" height="2.32"/><rect class="cls-75" x="453.44" y="193.27" width="16.71" height="2.32"/></g><path class="cls-78" d="M294.17,95.84h0A6.86,6.86,0,0,1,287.34,89h0a6.86,6.86,0,0,1,6.83-6.85h0A6.85,6.85,0,0,1,301,89h0A6.86,6.86,0,0,1,294.17,95.84Z" transform="translate(-234.01 -67.05)"/><path class="cls-78" d="M315.26,95.84h0A6.86,6.86,0,0,1,308.44,89h0a6.85,6.85,0,0,1,6.82-6.85h0A6.86,6.86,0,0,1,322.09,89h0A6.86,6.86,0,0,1,315.26,95.84Z" transform="translate(-234.01 -67.05)"/><path class="cls-78" d="M274.81,164.37h0a3.5,3.5,0,0,0,3.48-3.5V118.76a3.49,3.49,0,0,0-3.48-3.5h0a3.5,3.5,0,0,0-3.48,3.5v42.11A3.51,3.51,0,0,0,274.81,164.37Z" transform="translate(-234.01 -67.05)"/></g></g></svg>